<svg width="57" height="27" viewBox="0 0 57 27" fill="none" xmlns="http://www.w3.org/2000/svg">
<path opacity="0.3" d="M4.37119 12.3619C4.31775 12.7466 4.275 13.1314 4.275 13.5375C4.27595 15.7812 5.1588 17.9346 6.73313 19.5332L11.7562 16.6262L4.37119 12.3619ZM4.59562 11.2504L9.61875 14.1467L9.61875 5.61808C8.40776 6.11225 7.32568 6.87657 6.45513 7.85271C5.58457 8.82884 4.94855 9.99097 4.59562 11.2504ZM12.825 9.83965L18.0726 6.8044C16.5758 5.62885 14.7282 4.98913 12.825 4.98752C12.0876 4.98752 11.3715 5.0944 10.6875 5.2654L10.6875 11.0687L12.825 9.83965ZM7.57744 20.2706C9.07416 21.4462 10.9218 22.0859 12.825 22.0875C13.5624 22.0875 14.2785 21.9806 14.9625 21.8096L14.9625 16.0063L7.57744 20.2706ZM16.0313 15.3865L16.0312 21.457C17.2438 20.9623 18.3269 20.1965 19.1976 19.2183C20.0683 18.2402 20.7035 17.0756 21.0544 15.814L16.0313 12.9176L16.0313 15.3865ZM16.0313 11.6886L21.2895 14.7131C21.3429 14.3284 21.375 13.933 21.375 13.5375C21.375 11.2076 20.4345 9.09152 18.9169 7.55252L13.8938 10.4595L16.0313 11.6886Z" fill="white"/>
<path d="M2.13748 13.5375C2.13748 19.437 6.92548 24.225 12.825 24.225C17.9015 24.225 22.1445 20.6875 23.2346 15.9422L23.2774 15.8567L23.256 15.846C23.4163 15.0979 23.5125 14.3284 23.5125 13.5375C23.5125 7.63803 18.7245 2.85002 12.825 2.85002C6.92548 2.85002 2.13748 7.63802 2.13748 13.5375ZM4.27498 13.5375C4.27498 13.1314 4.31773 12.7466 4.37117 12.3619L11.7562 16.6262L6.7331 19.5332C5.15878 17.9346 4.27593 15.7812 4.27498 13.5375ZM12.825 22.0875C10.8478 22.0875 9.03092 21.4035 7.57742 20.2707L14.9625 15.9957L14.9625 21.799C14.2785 21.9807 13.5624 22.0875 12.825 22.0875ZM16.0312 21.457L16.0312 12.9177L21.0544 15.814C20.349 18.379 18.468 20.463 16.0312 21.457ZM21.375 13.5375C21.375 13.933 21.3429 14.3284 21.2895 14.7132L16.0312 11.6886L13.8937 10.4595L18.9169 7.55253C20.4927 9.14579 21.3761 11.2966 21.375 13.5375ZM12.825 4.98752C14.8022 4.98753 16.619 5.67153 18.0725 6.8044L12.825 9.83965L10.6875 11.0687L10.6875 5.2654C11.3715 5.0944 12.0875 4.98752 12.825 4.98752ZM9.61873 11.6886L9.61873 14.1467L4.5956 11.2504C4.94834 9.98961 5.58416 8.82595 6.45464 7.84805C7.32512 6.87015 8.40729 6.10381 9.61873 5.6074L9.61873 11.6886Z" fill="white"/>
<path d="M55.5 24.1601L27.6079 13.1812L55.5 2.20244L55.5 24.1601Z" fill="#7786B8" fill-opacity="0.43" stroke="white" stroke-width="3"/>
</svg>
