<svg width="169" height="52" viewBox="0 0 169 52" fill="none" xmlns="http://www.w3.org/2000/svg">
<g clip-path="url(#clip0_202_2)">
<path fill-rule="evenodd" clip-rule="evenodd" d="M95.8179 4.84633C95.9006 4.83278 95.9833 4.81971 96.0659 4.80712C96.0805 5.08367 96.7184 6.05795 96.822 6.28358C96.8272 6.29503 96.8325 6.30638 96.838 6.31768C85.3377 7.81713 74.9826 14.9954 75.0055 30.1991C74.239 12.6987 84.3756 6.72227 95.8179 4.84633ZM96.415 22.2344C100.874 12.2278 127.199 18.0248 109.301 8.03038C106.95 6.71783 104.105 6.20812 101.336 5.93622C101.179 5.64248 100.82 4.75225 100.654 4.48426C103.729 4.70817 107.07 5.69309 109.72 7.07787C113.944 9.28531 117.649 12.7548 119.75 17.1678C120.09 17.8822 117.479 19.0547 116.927 18.5614C115.462 17.3598 114.195 16.9602 111.968 16.7603C107.18 16.3307 98.5511 18.0689 96.415 22.2344Z" fill="#CCCCCC"/>
<path fill-rule="evenodd" clip-rule="evenodd" d="M101.601 6.44171C97.5055 0.459784 95.2355 5.16682 98.6083 7.10596C91.5746 5.46856 99.064 -2.06536 101.601 6.44171Z" fill="#CCCCCC"/>
<path fill-rule="evenodd" clip-rule="evenodd" d="M104.4 7.26817C104.862 7.19231 105.355 7.84966 105.501 8.73637C105.646 9.62305 105.389 10.4034 104.926 10.4792C104.463 10.555 103.971 9.89772 103.825 9.01103C103.68 8.12433 103.937 7.344 104.4 7.26817Z" fill="#CCCCCC"/>
<path fill-rule="evenodd" clip-rule="evenodd" d="M74.725 30.2002C74.6785 52.4939 116.858 52.286 114.949 27.7866C110.825 25.636 102.474 28.4024 96.5307 31.0215C95.0697 31.6653 94.6473 27.4216 96.2997 26.9087C101.183 25.3926 113.375 25.1587 116.9 26.3376C117.121 26.4114 117.24 26.6502 117.166 26.8707C115.225 57.4133 74.2975 53.8205 74.725 30.2002Z" fill="#CCCCCC"/>
<path fill-rule="evenodd" clip-rule="evenodd" d="M116.915 17.2145C119.482 19.4285 120.574 26.9272 120.285 29.2693C119.917 32.2599 120.805 34.1095 124.068 34.1095C127.487 34.1095 128.125 32.4011 128.125 29.2693V21.2845C128.125 19.7589 130.127 19.6269 130.127 21.2845V29.2728C130.127 33.389 128.734 35.9009 124.241 35.9009C120.293 35.9009 117.983 33.9591 118.283 29.2728C118.728 22.3327 117.529 19.6315 116.624 17.2848C116.585 17.1829 116.828 17.2463 116.915 17.2145ZM133.503 35.648V20.5583H140.191C141.536 20.5583 142.558 20.6953 143.257 20.9657C143.956 21.2362 144.515 21.7139 144.933 22.3989C145.351 23.0838 145.558 23.8425 145.558 24.6714C145.558 25.7427 145.21 26.6454 144.518 27.3795C143.826 28.1137 142.758 28.5773 141.311 28.7775C141.842 29.0304 142.242 29.2833 142.516 29.5292C143.099 30.0631 143.651 30.734 144.167 31.5383L146.777 35.648H144.283L142.288 32.5078C141.708 31.5981 141.227 30.9061 140.851 30.4249C140.472 29.9437 140.135 29.61 139.836 29.4168C139.541 29.2272 139.235 29.0937 138.926 29.0164C138.701 28.9707 138.333 28.9462 137.816 28.9462H135.505V35.648H133.503ZM135.505 27.218H139.79C140.704 27.218 141.413 27.1231 141.926 26.9335C142.439 26.7473 142.829 26.4452 143.092 26.0273C143.359 25.6128 143.492 25.1632 143.492 24.6749C143.492 23.9619 143.236 23.3718 142.72 22.9117C142.203 22.4515 141.388 22.2232 140.275 22.2232H135.505V27.218ZM158.565 20.5583H160.567V29.2728C160.567 30.7902 160.395 31.995 160.054 32.8872C159.71 33.7758 159.091 34.5029 158.199 35.0614C157.304 35.6199 156.134 35.9009 154.68 35.9009C153.271 35.9009 152.116 35.6585 151.22 35.1703C150.321 34.6821 149.681 33.9795 149.299 33.0558C148.916 32.132 148.723 30.871 148.723 29.2728V20.5583H150.725V29.2693C150.725 30.5794 150.848 31.5489 151.09 32.1671C151.332 32.7888 151.747 33.27 152.34 33.6037C152.931 33.9409 153.654 34.1095 154.508 34.1095C155.969 34.1095 157.012 33.7758 157.634 33.112C158.256 32.4446 158.565 31.166 158.565 29.2693V20.5583ZM69.9361 35.7744V20.6847H71.9382V35.7744H69.9361ZM56.8309 35.7744V20.6847H67.0101V22.4551H58.8331V27.1548H65.9143V28.925H58.8331V35.7744H56.8309ZM41.4848 35.7744V20.6847H43.5362L51.4533 32.5289V20.6847H53.3711V35.7744H51.3199L43.4027 23.9303V35.7744H41.4848ZM24.5019 28.4298C24.5019 25.9289 25.1763 23.9689 26.5216 22.5534C27.8669 21.1379 29.6021 20.4318 31.7306 20.4318C33.1251 20.4318 34.3791 20.7656 35.4996 21.4294C36.6166 22.0933 37.4701 23.0205 38.0567 24.2113C38.6433 25.3985 38.9383 26.7473 38.9383 28.2542C38.9383 29.7821 38.6292 31.152 38.011 32.3568C37.3928 33.5651 36.5182 34.4784 35.3872 35.0965C34.2526 35.7182 33.0303 36.0273 31.7201 36.0273C30.2976 36.0273 29.0296 35.6831 27.9091 34.9982C26.7921 34.3132 25.9421 33.3789 25.366 32.1917C24.79 31.008 24.5019 29.754 24.5019 28.4298ZM26.5673 28.465C26.5673 30.2809 27.0555 31.7105 28.032 32.7537C29.0085 33.7969 30.2343 34.3203 31.7096 34.3203C33.2129 34.3203 34.4458 33.7934 35.4188 32.7396C36.3882 31.6859 36.8729 30.1896 36.8729 28.2507C36.8729 27.0248 36.6657 25.9535 36.2512 25.0403C35.8368 24.127 35.2291 23.4175 34.4318 22.9152C33.6309 22.4129 32.7353 22.16 31.7412 22.16C30.3292 22.16 29.1139 22.6447 28.0952 23.6142C27.0766 24.5836 26.5673 26.1994 26.5673 28.465ZM20.6417 30.4811L22.6439 30.9869C22.2259 32.6273 21.4742 33.8742 20.3888 34.7347C19.3034 35.5953 17.9757 36.0273 16.4057 36.0273C14.7829 36.0273 13.4622 35.6971 12.4436 35.0333C11.4249 34.3729 10.6522 33.414 10.1218 32.1601C9.5914 30.9026 9.32448 29.5573 9.32448 28.1172C9.32448 26.5471 9.62303 25.1772 10.2237 24.0076C10.8243 22.8379 11.6778 21.9492 12.7842 21.3416C13.8907 20.7339 15.1095 20.4318 16.4373 20.4318C17.9476 20.4318 19.2157 20.8147 20.2413 21.5839C21.2705 22.3532 21.987 23.4315 22.391 24.8225L20.431 25.2861C20.0833 24.1902 19.5739 23.3894 18.9101 22.8906C18.2462 22.3883 17.4102 22.1389 16.4021 22.1389C15.2465 22.1389 14.2771 22.4164 13.5008 22.9714C12.7246 23.5263 12.1766 24.2745 11.864 25.2088C11.5478 26.1467 11.3898 27.1126 11.3898 28.1067C11.3898 29.3887 11.576 30.5092 11.9483 31.4646C12.3206 32.4235 12.9002 33.1365 13.687 33.6108C14.4738 34.0849 15.3238 34.3203 16.2406 34.3203C17.3575 34.3203 18.2989 33.9971 19.0716 33.3543C19.8444 32.708 20.3678 31.7526 20.6417 30.4811Z" fill="#CCCCCC"/>
<path fill-rule="evenodd" clip-rule="evenodd" d="M129.347 20.1623C129.347 18.6367 131.349 18.5047 131.349 20.1623V28.1506C131.349 32.2669 129.956 34.7787 125.462 34.7787C121.514 34.7787 118.856 32.8015 119.505 28.1506C119.926 25.1251 119.449 21.0633 116.468 17.0925L117.744 16.5314C120.482 19.7809 121.904 24.9219 121.507 28.1471C121.138 31.1377 122.027 32.9873 125.29 32.9873C128.708 32.9873 129.347 31.2789 129.347 28.1471V20.1623Z" fill="white"/>
<path fill-rule="evenodd" clip-rule="evenodd" d="M95.8633 5.67365C84.3832 7.20997 75.3007 15.1798 75.059 27.3536C74.5475 53.1054 115.952 51.01 114.091 27.1265C109.967 24.9759 101.616 27.7422 95.6725 30.3614C94.2115 31.0051 93.7891 26.7614 95.4415 26.2485C100.325 24.7325 112.517 24.4986 116.042 25.6775C116.262 25.7513 116.381 25.99 116.308 26.2105C115.29 42.2201 103.816 48.7733 93.1873 47.9879C93.1192 48.006 93.0462 48.0106 92.9721 47.9992C92.848 47.9799 92.7247 47.9599 92.602 47.9393C81.6456 46.8488 73.7917 38.1692 74.0069 27.3329C74.2626 14.4532 82.2328 6.3077 94.8377 4.20694C94.5167 2.16833 97.8618 0.190969 99.9372 3.83487C102.973 4.0782 106.252 5.05407 108.862 6.41774C113.086 8.62513 116.79 12.0946 118.892 16.5076C119.231 17.222 116.621 18.3946 116.069 17.9013C114.604 16.6997 113.337 16.3001 111.109 16.1002C106.322 15.6705 97.6929 17.4088 95.5568 21.5742C100.016 11.5676 126.341 17.3646 108.443 7.37021C106.121 6.07416 103.318 5.56093 100.582 5.28647C100.637 5.44585 100.691 5.60923 100.743 5.7816C96.6473 -0.20037 94.3773 4.50665 97.7501 6.44584C96.9359 6.25631 96.3185 5.98718 95.8633 5.67365ZM103.541 6.60801C104.004 6.53215 104.497 7.18951 104.642 8.07621C104.788 8.96292 104.531 9.74322 104.068 9.81907C103.605 9.89488 103.112 9.23757 102.967 8.35087C102.822 7.46416 103.079 6.68387 103.541 6.60801Z" fill="white"/>
<path fill-rule="evenodd" clip-rule="evenodd" d="M19.9651 29.3589L21.9672 29.8647C21.5493 31.5051 20.7976 32.752 19.7122 33.6126C18.6268 34.4731 17.2991 34.9051 15.7291 34.9051C14.1062 34.9051 12.7856 34.575 11.767 33.9111C10.7483 33.2508 9.97554 32.2919 9.4452 31.0379C8.91478 29.7804 8.64787 28.4351 8.64787 26.995C8.64787 25.4249 8.94643 24.055 9.54704 22.8854C10.1477 21.7157 11.0012 20.8271 12.1076 20.2194C13.2141 19.6117 14.4329 19.3097 15.7606 19.3097C17.271 19.3097 18.539 19.6925 19.5647 20.4617C20.5939 21.231 21.3104 22.3093 21.7143 23.7003L19.7544 24.1639C19.4066 23.0681 18.8973 22.2672 18.2335 21.7684C17.5696 21.2661 16.7336 21.0167 15.7255 21.0167C14.5699 21.0167 13.6004 21.2943 12.8242 21.8492C12.048 22.4042 11.5 23.1523 11.1874 24.0866C10.8712 25.0245 10.7132 25.9904 10.7132 26.9845C10.7132 28.2665 10.8994 29.387 11.2717 30.3424C11.644 31.3013 12.2236 32.0143 13.0104 32.4886C13.7972 32.9627 14.6472 33.1981 15.564 33.1981C16.6809 33.1981 17.6223 32.8749 18.395 32.2321C19.1678 31.5858 19.6911 30.6304 19.9651 29.3589ZM23.8253 27.3076C23.8253 24.8067 24.4997 22.8467 25.845 21.4312C27.1903 20.0157 28.9255 19.3097 31.054 19.3097C32.4485 19.3097 33.7024 19.6434 34.8229 20.3072C35.9399 20.9711 36.7934 21.8984 37.38 23.0891C37.9666 24.2763 38.2617 25.6252 38.2617 27.132C38.2617 28.6599 37.9526 30.0298 37.3344 31.2346C36.7162 32.4429 35.8416 33.3562 34.7106 33.9743C33.576 34.5961 32.3537 34.9051 31.0435 34.9051C29.6209 34.9051 28.3529 34.5609 27.2325 33.876C26.1155 33.191 25.2654 32.2567 24.6894 31.0695C24.1134 29.8858 23.8253 28.6318 23.8253 27.3076ZM25.8907 27.3428C25.8907 29.1587 26.3789 30.5883 27.3554 31.6315C28.3318 32.6747 29.5577 33.1981 31.033 33.1981C32.5363 33.1981 33.7692 32.6712 34.7422 31.6174C35.7116 30.5637 36.1963 29.0674 36.1963 27.1285C36.1963 25.9026 35.9891 24.8313 35.5746 23.9181C35.1602 23.0048 34.5525 22.2953 33.7551 21.793C32.9543 21.2907 32.0586 21.0378 31.0646 21.0378C29.6525 21.0378 28.4372 21.5225 27.4186 22.492C26.4 23.4614 25.8907 25.0772 25.8907 27.3428ZM40.8082 34.6522V19.5626H42.8595L50.7767 31.4067V19.5626H52.6945V34.6522H50.6432L42.726 22.8081V34.6522H40.8082ZM56.1543 34.6522V19.5626H66.3335V21.3329H58.1565V26.0326H65.2376V27.8029H58.1565V34.6522H56.1543ZM69.2595 34.6522V19.5626H71.2615V34.6522H69.2595Z" fill="white"/>
<path fill-rule="evenodd" clip-rule="evenodd" d="M134.724 34.5258V19.4361H141.412C142.757 19.4361 143.78 19.5731 144.478 19.8436C145.177 20.114 145.736 20.5917 146.154 21.2767C146.572 21.9616 146.779 22.7203 146.779 23.5493C146.779 24.6205 146.431 25.5232 145.739 26.2574C145.048 26.9915 143.98 27.4551 142.533 27.6553C143.063 27.9082 143.463 28.1611 143.737 28.407C144.32 28.9409 144.872 29.6118 145.388 30.4161L147.998 34.5258H145.504L143.509 31.3856C142.929 30.4759 142.448 29.7839 142.072 29.3027C141.693 28.8215 141.356 28.4878 141.057 28.2946C140.762 28.105 140.457 27.9715 140.148 27.8942C139.923 27.8485 139.554 27.824 139.038 27.824H136.726V34.5258H134.724ZM136.726 26.0958H141.012C141.925 26.0958 142.634 26.001 143.147 25.8113C143.66 25.6252 144.05 25.3231 144.313 24.9051C144.58 24.4906 144.714 24.041 144.714 23.5527C144.714 22.8397 144.457 22.2496 143.941 21.7895C143.425 21.3293 142.61 21.101 141.496 21.101H136.726V26.0958ZM159.786 19.4361H161.788V28.1506C161.788 29.668 161.616 30.8728 161.275 31.765C160.931 32.6536 160.313 33.3807 159.421 33.9392C158.525 34.4977 157.355 34.7787 155.901 34.7787C154.493 34.7787 153.337 34.5363 152.441 34.0481C151.542 33.5598 150.903 32.8573 150.52 31.9336C150.137 31.0098 149.944 29.7488 149.944 28.1506V19.4361H151.946V28.1471C151.946 29.4572 152.069 30.4267 152.311 31.0449C152.554 31.6666 152.968 32.1478 153.562 32.4815C154.152 32.8187 154.875 32.9873 155.729 32.9873C157.19 32.9873 158.233 32.6536 158.855 31.9898C159.477 31.3224 159.786 30.0438 159.786 28.1471V19.4361Z" fill="white"/>
<path fill-rule="evenodd" clip-rule="evenodd" d="M129.79 19.5114C130.323 18.93 131.171 19.1524 131.171 20.3387V28.0841C131.171 31.9986 129.846 34.3874 125.573 34.3874C124.68 34.3874 123.856 34.2808 123.128 34.0592C123.763 34.2135 124.462 34.2883 125.209 34.2883C129.483 34.2883 130.808 31.8995 130.808 27.985V20.5863C130.808 19.6316 130.341 19.3014 129.79 19.5114Z" fill="#DCDCDC"/>
</g>
<defs>
<clipPath id="clip0_202_2">
<rect width="169" height="52" fill="white"/>
</clipPath>
</defs>
</svg>
